<?xml version="1.0" encoding="UTF-8"?>
<svg id="Layer_1" data-name="Layer 1" xmlns="http://www.w3.org/2000/svg" viewBox="0 0 1367.68 416.11">
  <defs>
    <style>
      .cls-1 {
        fill: none;
      }

      .cls-2 {
        fill: #69717d;
      }

      .cls-3 {
        fill: #67747c;
      }

      .cls-4 {
        fill: #e64d55;
      }
    </style>
  </defs>
  <g>
    <g>
      <path class="cls-4" d="m338.64,301.6c-20.21-13.11-42.86-22.77-67.12-28.17-13.74-3.05-28.01-4.74-42.63-4.9-.77,0-1.54-.01-2.32-.01s-1.52,0-2.27.01c-6.03.07-12,.39-17.9.96,5.6-3.75,11.55-7,17.8-9.68.78-.34,1.57-.67,2.37-.99.81-.33,1.62-.65,2.44-.95.09-.03.17-.07.25-.09.22-.09.44-.16.65-.25,3.63-1.35,7.52-2.56,11.67-3.55.13-.04.27-.07.4-.1,5.72-1.38,11.62-2.32,17.65-2.78.33-.02.66-.05.99-.07l-23.17-47.63-.08-.17-.04-.08-7.54-15.52.82-73.14.53.91,84.2,145.83,22.95,39.75.35.6Z"/>
      <path class="cls-2" d="m223.4,187.53l-.8,1.65-40.13,82.51-.85,1.74c-24.25,5.4-46.9,15.06-67.11,28.16l.11-.19,17.05-29.53.07-.12,3.19-5.52,2.11-3.66,85.56-148.07.8,73.02Z"/>
    </g>
    <g>
      <path class="cls-4" d="m393.04,185.47c18.41,0,35.4,7.78,45.78,21.44l-22.89,17.2c-5.19-7.07-13.92-10.84-22.89-10.84-16.05,0-30.91,11.31-30.91,29.22s14.87,30.16,30.91,30.16c8.97,0,17.7-4,22.89-11.07l23.13,16.96c-10.38,13.67-27.37,21.68-46.02,21.68-31.62,0-59.47-23.09-59.47-57.72s27.84-57.02,59.47-57.02Z"/>
      <path class="cls-4" d="m502.77,185.47c18.41,0,35.4,7.78,45.78,21.44l-22.89,17.2c-5.19-7.07-13.92-10.84-22.89-10.84-16.05,0-30.91,11.31-30.91,29.22s14.87,30.16,30.91,30.16c8.97,0,17.7-4,22.89-11.07l23.13,16.96c-10.38,13.67-27.37,21.68-46.02,21.68-31.62,0-59.47-23.09-59.47-57.72s27.84-57.02,59.47-57.02Z"/>
      <path class="cls-4" d="m561.76,187.82v110.03h28.55v-110.03h-28.55Zm14.39-59.85c-10.15,0-18.64,7.54-18.64,17.2s8.5,17.44,18.64,17.44,18.17-7.54,18.17-17.44-8.26-17.2-18.17-17.2Z"/>
      <path class="cls-4" d="m662.05,185.47c-31.39,0-57.35,22.38-57.35,57.02s25.96,57.49,57.35,57.49,57.34-22.85,57.34-57.49-26.2-57.02-57.34-57.02Zm0,86.47c-15.81,0-28.79-11.54-28.79-29.45s12.98-28.74,28.79-28.74,28.79,11.3,28.79,28.74-12.98,29.45-28.79,29.45Z"/>
      <path class="cls-4" d="m762.57,297.85h-28.79v-110.03h28.79v16.26c6.13-11.78,20.06-18.61,32.8-18.61,25.72,0,41.06,16.26,41.06,47.36v65.03h-28.79v-59.85c0-16.02-8.5-24.5-21-24.5s-24.07,6.6-24.07,25.68v58.67Z"/>
      <rect class="cls-3" x="856.26" y="127.98" width="28.79" height="169.88"/>
      <path class="cls-3" d="m989.82,187.82v13.67c-8.02-12.25-24.31-16.02-34.22-16.02-29.02,0-56.16,21.91-56.16,57.25s27.14,57.26,56.16,57.26c10.86,0,27.14-4.95,34.22-16.26v14.14h28.79v-110.03h-28.79Zm-30.2,84.58c-15.81,0-30.45-12.01-30.45-29.69s14.64-29.69,30.45-29.69,30.2,10.6,30.2,29.69-14.63,29.69-30.2,29.69Z"/>
      <path class="cls-3" d="m1103.09,185.47c-14.63,0-28.55,5.89-34.45,16.96v-74.46h-28.79v169.88h28.79v-14.84c5.9,11.07,20.06,17.2,34.45,17.2,28.79,0,54.04-22.39,54.04-57.26s-25.01-57.49-54.04-57.49Zm-4.72,87.17c-15.57,0-29.26-11.78-29.26-30.16s14.4-29.69,29.26-29.69c16.05,0,29.03,11.78,29.03,29.69s-12.98,30.16-29.03,30.16Z"/>
      <path class="cls-3" d="m1167.04,218.21c0-17.67,18.64-32.75,40.59-32.75,20.77,0,42.01,9.42,42.95,34.64h-27.37c-.47-8.25-8.5-11.31-14.87-11.31-7.08,0-13.92,2.59-13.92,10.84,0,4.48,5.19,7.54,11.56,9.19l18.41,4.48c25.48,6.6,28.79,24.27,28.79,32.99,0,22.38-22.18,33.93-45.07,33.93-21.71,0-43.89-13.2-44.36-36.99h26.9c.71,7.78,9.68,14.37,20.3,13.9,8.02-.24,14.39-4.71,14.39-11.07.24-5.65-4.01-8.48-12.04-10.37l-15.1-3.77c-28.55-7.78-31.15-20.73-31.15-33.69Z"/>
    </g>
  </g>
  <rect class="cls-1" width="1367.68" height="416.11"/>
</svg>